<svg xmlns:xlink="http://www.w3.org/1999/xlink" xmlns="http://www.w3.org/2000/svg" class="svg-icon-cart" width="90" height="77"><defs><symbol id="svg-theme-icon-cart" viewBox="0 0 64 64"><title>Cart icon</title><g fill="currentColor"><path d="M63.767 23.307c-.495-1.968-1.43-1.747-4.36-1.73-2.93.02-11.83-.054-13.644.056-1.813.11-8.627.055-8.7.055s-.183-1.6-.2-4.58-.166-8.075-.24-10.78S34.17 4.03 32.96 4.013c-1.21-.018-4.432.202-5.073.7-.64.496-.99 3.935-.97 7.154.017 3.22-.13 8.663-.13 8.792s-.274.184-1.373.22c-1.1.038-4.14-.017-9.14 0-5 .02-9.56-.367-10.512-.128-.952.24-3.773.644-4.945.956s-.772 1.656-.66 3.127c.074.956.66 6.31 1.118 8.075.458 1.766 4.615 1.82 4.927 1.876.31.055 1.355 4.36 2.234 8.093s1.722 10.87 2.418 13.115c.696 2.244 2.802 2.612 6.758 2.888 3.956.276 9.23-.294 15.66-.24 6.428.056 13.828.424 15.64.35 1.814-.074 3.096-.533 3.81-1.93.715-1.4 2.492-6.163 3.426-9.602.934-3.44 3.352-11.183 3.425-11.588s.99-.22 2.93-.294c1.94-.074 1.447-4.286 1.374-7.1s.385-3.2-.11-5.17zM29.17 14.533c.072-4.23.146-5.85.292-6.806.147-.956.53-1.36.788-1.36s1.868.11 2.454.09c.586-.017 1.392-.054 1.447.57s.312 7.616.33 11.22.02 6.2-.42 7.175-1.575 1.49-2.49 1.343c-.67-.108-1.924-.533-2.09-2.373-.164-1.84-.384-5.63-.31-9.86zm28.113 21.355c-.128.405-1.722 6.75-2.546 9.454s-3.333 9.804-3.755 10.466-1.575.846-4.23.828c-2.657-.018-6.027-.33-14.49-.258s-11.025.147-14.615.092-4.268-.386-4.707-2.097-1.557-6.86-2.16-10.06c-.605-3.2-1.356-5.574-1.356-5.574-.275-1.27-.586-3.643-.403-3.643.184 0 6.52-.037 9.36-.037s12.308.294 17.93.22 15.752.056 18.078.11c2.328.056 3.024.093 2.895.498zm4.176-2.74c-.257.073-4.855.036-9.507-.13s-9.03-.055-15.934-.055-11.137.22-17.144 0c-6.007-.22-8.993-.478-11.795-.497s-3.552-.258-3.552-.754-.66-5.28-.77-6.18c-.068-.57-.33-1.692.148-1.73s2.84-.46 5.824-.588 9.89-.018 13.132-.147 5.183-.184 5.202.055c.018.24-.22 3.053 1.026 4.47 1.245 1.416 2.674 1.82 4.762 1.453 2.088-.368 3.022-1.545 3.333-3.072s.586-2.023.696-2.097 9.598-.13 13.17-.055c3.572.075 8.132.185 9.378.26 1.245.073 1.832.054 1.832.496 0 .44.183 1.177.256 3.9s.2 4.598-.057 4.67zm-53.262-8.7c-.782.023-3.64.097-4.03.244-.39.147 0 1.08.27 3.262.268 2.183.587 1.91.855 1.888.928-.074.66-.515.61-.932-.048-.417-.292-1.62-.292-2.38 0-.76.318-.563.71-.637.39-.074 2.148-.172 2.466-.466s.193-1.005-.588-.98zm25.202-.54c.317-1.693-1.253-2.08-1.856-1.767-1.368.712-1.172 1.865-.684 2.503.49.638 2.223.957 2.54-.736zm25.788 1.667c-.317.098-.195.662-.195 1.373v3.384c0 .71-2.002.343-2.857.294-.855-.05-1.073.417-1.05.81.05.833 2.857.76 4.176.735 1.32-.024 1.123-.39 1.22-1.47.1-1.08-.072-3.164-.12-4.267-.05-1.103-.856-.956-1.174-.858zm-40.294 16.31c3.492-.1 7.79-.026 8.572-.075.782-.05.342-2.624.317-3.728-.024-1.104-.56-.98-3.297-1.006-2.735-.025-10.403.147-11.038.294-.635.147-.05 1.347-.05 2.722 0 .147.025.907.148 1.57.122.664 1.856.32 5.348.222zm-4.127-1.252c-.073-.59-.244-1.815-.244-1.815-.024-.49.757-.59 1.49-.662.733-.074 8.28-.025 9.23 0 .953.025 1.173.123 1.173.71s.415 1.742-.195 1.742-6.86.196-8.62.245c-1.76.05-2.76.37-2.833-.22zm5.177 8.118c4.225-.097 7.326-.17 8.18-.293.856-.123.758-1.08.61-2.673-.146-1.594-.267-1.692-.634-1.79-.366-.098-2.442.025-5.397-.025s-7.595-.32-8.254-.32-.524 1.72-.587 2.6c-.05.687-.147 1.47.17 2.207.32.736 1.686.392 5.91.294zm-4.59-1.397c.023-.343.097-1.373.097-1.373 0-.417 0-1.03.294-1.03.293 0 6.47.49 8.596.49s2.98-.367 3.077.1c.098.465.49 1.667-.17 1.69-.66.026-3.42.075-7.132.246-3.712.172-4.786.22-4.762-.123zm10.964 3.213c-2.735.05-10.672.074-11.258.098-.586.025.05 2.28.17 3.286.123 1.005.51.74.953.785.244.025 2.588.05 6.252.025 3.663-.025 6.594-.32 7.4-.44.805-.124.12-2.7-.025-3.238-.146-.54-.757-.565-3.492-.516zm2.247 2.33c-.562.098-2.76.196-5.324.343s-6.03.416-6.226.416c-.44 0-.806-.098-.88-.54-.072-.44-.267-1.03.196-1.104.464-.074 4.933-.196 7.937-.172 3.004.025 4.274-.098 4.396.245.12.345.463.713-.098.81zm20.39-15.524c-3.076 0-11.183-.074-12.136-.025-.953.05-.636 2.65-.612 3.532.025.882.584.976 1.392.93.44-.024 5.128-.073 8.083-.27 2.955-.195 6.032-.023 6.545-.122.513-.098.782-2.575.903-3.31.124-.736-1.097-.736-4.174-.736zm2.492 2.526s-.708.22-1.123.196c-.415-.025-3.712.098-5.983.172-2.27.074-5.884.172-6.055.172-.684 0-.83.196-.83-.22s-.05-1.644.22-1.67c.27-.024 5.47.295 9.036.32 3.566.025 4.348-.074 4.616.098.267.17.12.932.12.932zm-5.03 3.04c-3.127.148-9.452.418-9.818.442-.367.025-.148 2.085-.172 3.14 0 0-.05.833.025 1.152.073.32.928.32 2.37.294 1.44-.025 4.492-.172 7.692-.147 3.2.024 4.005.49 4.298.024.293-.466.88-3.654.903-4.34.024-.688-2.174-.712-5.3-.565zm3.516 3.532c-.342.024-1.417-.098-5.373-.098s-5.52.024-5.934.05c-.415.024-.733.17-.855-.59-.054-.34-.194-1.055 0-1.153.196-.1 2.76-.344 5.08-.418 2.32-.074 4.762-.196 5.665-.196.904 0 1.636-.074 1.636.392.003.467.125 1.988-.217 2.012zm-.318 3.483c-.66 0-3.077-.123-6.13-.123-3.052 0-6.226-.123-6.52-.025-.292.098-.243 1.47-.292 2.183 0 0-.147.883-.073 1.74.073.86 1.587.64 4.2.663 2.613.026 7.448.075 7.96-.048.514-.123 1.32-2.722 1.54-3.41.22-.685-.025-.98-.685-.98zM48.15 52.97c-.757.073-2.418.146-4.982.146s-3.687-.05-4.37-.05c-.685 0-1.002-.146-1.027-.27-.024-.122 0-.735 0-.735 0-.244-.146-.906 0-.955s5.422.123 7.522.123c2.1 0 3.883-.22 3.712.196-.17.417-.097 1.472-.854 1.545z"></path></g></symbol></defs>
                <use xlink:href="#svg-theme-icon-cart"></use>
              </svg>