<svg xmlns:xlink="http://www.w3.org/1999/xlink" xmlns="http://www.w3.org/2000/svg" class="svg-icon-menu" width="78" height="84"><defs><symbol id="svg-theme-icon-menu" viewBox="0 0 64 64"><title>Menu icon</title><g fill="currentColor"><path d="M60.952 51.344c-.07-1.388-.356-3.202-1.888-7.828s-5.877-14.802-9.44-23.413c-3.56-8.61-6.303-16.047-7.336-18.36C41.255-.57 40.15.035 38.762.177s-8.87 2.1-13.143 3.274-7.16 1.673-12.396 2.776S3.82 8.574 2.61 9s-.324 2.082.142 3.915c.534 2.1 3.134 11.208 4.915 16.083s5.022 14.766 6.66 19.997 3.492 12.454 4.097 14.09c.606 1.637 2.03.676 2.956.178.926-.498 3.028-.925 8.904-2.064 5.877-1.14 10.33-2.35 16.776-3.488 6.447-1.14 11.896-2.49 13-2.99s.963-1.99.892-3.378zm-2.778-.926c-.606.285-8.584 2.135-14.14 3.345-5.556 1.21-7.017 1.743-13.32 3.167-6.305 1.423-9.297 2.17-9.867 2.42-.57.25-1.07.498-1.282-.036-.214-.534-3.277-10.817-4.737-15.798s-4.523-13.485-6.233-18.36-3.74-11.706-3.74-11.706-.784-2.704-.57-2.775c.214-.07 5.2-1.672 9.26-2.562 4.06-.89 10.26-2.1 14.533-3.06s10.472-2.42 11.077-2.455.712-.25 1.104.285 3.098 6.974 4.31 10.14 5.59 14.412 7.87 19.606c2.28 5.194 3.92 9.855 4.845 12.986.925 3.13 1.494 4.518.89 4.802zM10.517 11.243c-1.033.213-2.707.747-3.384 1.14s.5 3.735.855 4.838.683 1.09 1.033.962c.785-.285.357-1.28.108-2.028-.25-.747-.285-2.064-.32-2.67s1.673-.64 2.35-.89c.677-.248.926-.248.89-.71-.035-.463-.498-.854-1.53-.64zM37.98 6.867c.498 0 .925 1.388 1.103 1.744.178.357.142.784.748.784s.75.07.535-1.14-.855-2.81-1.14-3.13-2.956.675-4.025.96c-1.07.285-.703.72-.57 1.103.286.818 2.85-.32 3.35-.32zM18.352 21.574c1.567.12 2.588-.617 2.992-.996 0 0 1.26.617 2.517-.024 1.26-.64 2.042-1.66 2.28-2.135.238-.475.333-.83.333-.83s.095 1.185 1.448 1.256c1.353.07 2.398-.664 2.398-.664s1.497.213 2.78-.285c1.28-.498 2.112-.593 2.943-.76.83-.165 2.28-1.114 1.472-2.466-.807-1.35-2.256-1.446-3.063-.924-.807.522-1.377 1.257-1.14 1.59.237.33.333.473.522.355.19-.118 1.07-.877 1.78-.734.713.142.713.735.215.9-.5.167-1.544.19-2.78.64-1.234.452-1.898.665-1.898.19 0-.473-.38-1.897-1.306-1.897s-1.638.71-1.852 1.138c-.214.427-.166 1.02.238 1.115.403.095.784-.047.855-.285.07-.237.047-.57.285-.64.237-.07.64.047.57.498-.07.45-.5.806-1.02.9-.523.096-1.283-.046-1.592-1.114-.31-1.067-.617-2.325-.166-3.368.45-1.044.902-1.21 1.306-1.115.404.094.522-.38-.048-.665-.57-.285-1.306-.332-1.78.38-.476.712-.737 1.542-.737 1.542s-.76-1.684-2.28-1.352c-1.52.332-1.947 1.115-2.137 1.66-.19.547.333 1.163.617 1.377l.285.213s-1.425.735-1.662 2.42c-.237 1.684-.095 2.087-.095 2.087s-.736.546-1.52.664c-.784.12-1.07-.427-.83-1.044.163-.425.45-.308.806-.403.355-.096.664-.88 0-.997-.666-.12-2.09.19-2.328 1.447-.237 1.256.024 2.205 1.59 2.324zm3.49-3.82c.025-.9.76-1.54 1.26-1.66.5-.12-.07.546-.07.546s-.38.356-.618 1.09c-.237.736.594.83 1.448.736.855-.095 1.07-1.21.95-2.254-.12-1.044-1.306-1.233-1.306-1.233-.31-.31-.76-.286-.665-1.116.095-.83.83-1.21 1.662-.45.83.758.95 2.252.64 3.913-.308 1.66-1.97 2.562-2.753 2.253-.784-.307-.57-.924-.546-1.825zm.31 13.26c.165.404.474.807.996.547s.593-.64.426-1.256c-.166-.617-1.306-3.772-1.828-4.84-.523-1.066-1.235-.9-1.805-.19-.57.713-1.33 2.136-1.71 2.634-.38.498-.878.12-1.377-.213-.5-.332-1.306-.76-1.757-.593-.452.166-.57.64-.357 1.257.214.616.808 3.083 1.092 3.842.285.76.433 1.63 1.187 1.352.45-.166.12-.76-.024-1.423-.142-.663-.546-2.466-.333-2.632.214-.166 1.187.332 1.947.19.76-.142 1.71-2.657 1.876-2.8.168-.143 1.498 3.723 1.664 4.127zm8.263-1.067c.404-.332.048-.76-.356-1.067-.403-.308-1.805.45-2.303.64s-.64-1.044-.69-1.186c-.046-.142 1.022-.427 1.52-.617.5-.19.903-.522.785-.878-.12-.357-.356-.38-.736-.31-.38.072-1.805.523-2.066.5-.26-.025-.332-.902-.38-1.14-.048-.237-.07-.427.64-.783.713-.356 1.545-.617 1.568-.878.024-.262-.475-.713-1.116-.547s-2.327 1.28-2.564 1.423c-.237.142.45 1.97.902 3.18 0 0 .26 1.897.522 2.585.26.69.808.523 1.662.262.855-.26 2.208-.853 2.612-1.185zm4.215-3.777c.535.32 1.764 1.655 2.548 1.975.784.32 1.353-.39 1.158-1.566-.196-1.175-1.175-4.413-1.425-5.09-.248-.675-.818-.568-1.263-.337-.445.23-.32.623-.09 1.317.233.694.89 2.847.927 3.024.036.178-.837-.32-1.977-1.156s-2.1-1.6-2.547-1.46c-.445.143-.356.89-.25 1.264s.59 2.1.945 3.576c.356 1.477.86 1.382 1.14 1.28.445-.16.463-.373.32-.977-.14-.604-.605-2.08-.605-2.223s.586.052 1.12.373zm3.865-5.053c-.855.356.053 2.26.606 3.612.553 1.35 1.105 2.24 2.53 2.42 1.425.177 2.67-.41 3.24-2.207s-.48-3.665-.818-4.34c-.338-.677-1.158-.16-1.336-.054s-.107.533.036.87c.142.34.427.855.712 2.01.285 1.157-.356 1.976-.766 2.065-.41.09-.89.16-1.55-.427-.658-.587-1.495-3.042-1.673-3.558s-.59-.556-.98-.393zM31.3 37.59s.285.34.445 1.353c.16 1.014-.108 1.556-.516 1.726-1.283.533-.624 1.28 0 1.6.622.32 1.424.125 2.01-.552.59-.676-.07-2.722-.07-2.722s.552.747 1.015 1.263 1.175 1.155 2.333.728c1.158-.427 1.264-1.832.748-2.33-.516-.5-.997-.41-1.407 0-.41.408.14.89.195.924.053.036.036.16-.09.16-.124 0-.676-.39-1.157-.925-.48-.534-.695-1.957-.695-1.957s.766.107.926.142c.16.036.925-.018 1.566-.64.64-.623.285-2.633-.285-3.63-.57-.995-2.083-.977-3.222-.212-1.14.765-.8 2.9-.8 2.9s-.393-.89-.856-1.637-1.39-1.032-2.974-.142c-1.585.89-1.247 3.417.018 4.45s2.814-.5 2.814-.5zm2.672-4.304c.8-.445 1.353-.036 1.638.605.285.64.356 1.104.125 1.478-.232.374-.57.534-.588.338-.018-.196.09-.747-.16-.925-.25-.177-.623-.266-.712 0-.08.244-.48.357-.552.286s-.553-1.335.25-1.78zm-4.364 1.263c.48-.143.392.23.25.355-.14.122-.874.676-.535.925s.908.07 1.015.07.338.926-.107 1.193c-.444.267-1.103.285-1.37-.694-.267-.98.268-1.71.748-1.85zm-.445 11.705c.5-.16 2.333-.587 3.775-.943 1.443-.356 2.6-.534 3.402-.676.8-.142 6.198-1.44 6.91-1.708.712-.267.445-.57.303-.978-.142-.41-.552-.39-1.496-.213-.944.178-3.83 1.014-4.933 1.37-1.104.356-2.707.48-4.043.836-1.335.356-4.88 1.317-5.075 1.405-.196.09-.032.558.09.8.16.32.57.268 1.068.107zm10.72-.676c-1.263.3-3.72.675-4.665.746s-4.88 1.192-5.396 1.388c-.516.196-.395.556-.196.978.285.605 1.96-.178 3.775-.658 1.818-.48 2.85-.552 3.9-.605 1.052-.054 5.06-1.015 5.63-1.3.57-.285.533-.676.23-1.14-.302-.46-2.01.287-3.276.59zm4.578 1.885c-.907.267-3.33.623-6 1.46-2.672.835-5.593 1.37-6.412 1.547-.82.178-2.903.64-3.384.783s-.536.392-.41.8c.232.748.926.357 2.707-.07 1.782-.427 3.776-.57 6.733-1.352 2.956-.783 4.132-1.28 6.625-1.797 2.493-.516 3.402-.623 3.67-.818.266-.196-.054-.836-.375-1.192s-2.244.372-3.152.64zM24.623 55.4c-1.175.285-2.262.872-2.582.89-.32.018-.8-1.583-.962-2.348-.16-.765-.57-.694-1.122-.534-.552.16-.123 1.293.356 2.633.178.5.48 1.442 1.193 1.727s2.618-.765 3.865-1.05c1.247-.285 1.282-.374 1.086-1.05s-.66-.552-1.834-.267zm29.118-9.838c-.695.213.07 1.886.125 2.046.053.16-.018.356-.552.498s-1.727.39-2.208.587c-.48.196-.312.666-.214.96.215.64.838.446 2.03.126 1.194-.32 1.996-.357 2.637-.66s-.374-2.58-.623-3.095-.5-.677-1.194-.463z"></path></g></symbol></defs>
                <use xlink:href="#svg-theme-icon-menu"></use>
              </svg>