<svg xmlns:xlink="http://www.w3.org/1999/xlink" xmlns="http://www.w3.org/2000/svg" class="svg-sin-line-separator u-flip-horizontal" width="173" height="81"><defs><symbol id="svg-theme-sin-line-separator" viewBox="0 0 400 190"><title>Separator dashed line</title><g fill="currentColor"><rect transform="matrix(1, 0, 0, 0.999999, 7.961747, 172.081281)" x="11.27" y="8.761" width="16" height="8"></rect><rect x="-0.016" y="181" width="7" height="8"></rect><rect x="46.095" y="179" width="16" height="8" transform="matrix(0.984808, -0.173648, 0.173648, 0.984806, -30.838307, 11.684062)"></rect><rect x="46.095" y="179" width="16" height="8" transform="matrix(0.965926, -0.258821, 0.258818, 0.965925, -18.756864, 13.902183)"></rect><rect x="46.095" y="179" width="16" height="8" transform="matrix(0.939692, -0.342021, 0.342018, 0.939691, -6.740702, 14.101867)"></rect><rect x="46.095" y="179" width="16" height="8" transform="matrix(0.882948, -0.469472, 0.469468, 0.882947, -1.940517, 19.50742)"></rect><rect x="46.095" y="179" width="16" height="8" transform="matrix(0.866025, -0.5, 0.499996, 0.866024, 16.968099, 10.891668)"></rect><rect x="46.095" y="179" width="16" height="8" transform="matrix(0.819152, -0.573576, 0.573572, 0.819153, 29.208488, 8.337189)"></rect><rect x="46.095" y="179" width="16" height="8" transform="matrix(0.788012, -0.615661, 0.615656, 0.788013, 45.509116, -0.038028)"></rect><rect x="46.095" y="179" width="16" height="8" transform="matrix(0.766046, -0.642787, 0.642783, 0.766048, 63.49029, -11.646723)"></rect><rect x="46.095" y="179" width="16" height="8" transform="matrix(0.766045, -0.642787, 0.642781, 0.766048, 85.246989, -29.060975)"></rect><rect x="46.095" y="179" width="16" height="8" transform="matrix(0.788012, -0.61566, 0.615655, 0.788015, 110.589671, -51.870091)"></rect><rect x="46.095" y="179" width="16" height="8" transform="matrix(0.809018, -0.587784, 0.58778, 0.80902, 136.857838, -74.308756)"></rect><rect x="46.095" y="179" width="16" height="8" transform="matrix(0.838671, -0.544637, 0.544634, 0.838672, 166.335711, -97.496915)"></rect><rect x="46.095" y="179" width="16" height="8" transform="matrix(0.882948, -0.46947, 0.469461, 0.882951, 202.373997, -123.000929)"></rect><rect x="46.095" y="179" width="16" height="8" transform="matrix(0.996195, -0.087154, 0.087146, 0.996195, 293.334808, -172.586976)"></rect><rect x="46.095" y="179" width="16" height="8" transform="matrix(0.99863, 0.052338, -0.052351, 0.998629, 347.201157, -180.561818)"></rect></g></symbol></defs>
            <use xlink:href="#svg-theme-sin-line-separator"></use>
          </svg>