<svg xmlns:xlink="http://www.w3.org/1999/xlink" xmlns="http://www.w3.org/2000/svg" class="svg-icon-wallet" width="64" height="62"><defs><symbol id="svg-theme-icon-wallet" viewBox="0 0 64 64"><title>Wallet icon</title><g fill="currentColor"><path d="M61.323 27.103c-.237-.284 0 0 .38-4.408.378-4.408.14-8.01-1.47-11.234s-7.1-3.317-10.747-3.554c-3.646-.237-12.69.332-13.873.332-1.184 0-3.788-1.612-6.202-3.13S19.8.464 18.57.037 15.112 3.07 14.544 3.45c-.568.378-3.41-1.14-4.593-1.423s-2.32 2.56-3.078 4.55-2.604 5.5-2.604 5.5-1.42.615-2.273 1.137c-.852.52-1.938 1.285-1.99 3.13-.094 3.46.57 14.362.995 20.856s.284 11.187.19 15.17.472 7.346 2.035 9.29 10.416.948 22.206.57 14.725.615 20.36.757c5.633.142 9.942-.806 11.078-2.797 1.137-1.99 2.416-10.05 2.51-10.428.095-.38.568-.142 2.036-1.612 1.468-1.47 1.94-4.693 2.51-11.566s-2.366-9.197-2.603-9.48zM20.62 4.666c.317-.158.57-.632.695-.916.126-.284.313-.5.663-.284.82.506 4.83 2.402 6.44 3.38 1.61.98 2.177 1.202 2.177 1.36 0 .158-1.673.032-2.115-.126-.442-.158-1.105-.095-2.62-.758-1.515-.664-4.293-1.8-4.893-2.054-.6-.254-.662-.444-.346-.602zm-2.304-2.56c.347-.126 1.073 0 1.294.126.22.126.537.316.537.632s-.284.285-.947.127c-.663-.157-.6-.22-1.042.096-.442.316-.063.853-.063 1.232s-.316.095-1.042-.41.777-1.625 1.263-1.802zm-8.774 3.13s.568-.665.852-1.14 1.452.033 2.115.475c.662.443-.032.917-.6 1.233-.57.316-1.548.758-2.495.822-.947.063-.347-.758.127-1.39zm-1.705 3.16c.22-.35 1.05.068 2.02.125.537.033.694-.157 2.462-.98 1.767-.82 1.735-1.39 1.956-1.863.22-.474 1.073-.158 2.21.19 1.135.348 5.27 1.738 5.744 2.022.473.283.22.347-1.073.852-1.294.506-2.65.664-6.344 1.454-3.693.79-7.638 1.485-8.238 1.55-.6.062 1.04-3.004 1.262-3.35zm48.546 38.552c-.316.38-.22 1.138-.316 2.212-.095 1.075-.38 3.255-.852 3.982-.473.727-2.778.853-3.662 1.138-.884.284-1.357.158-6.944.284-5.588.126-12.564-.22-19.287 0-6.723.22-13.446.6-16.887.885-3.44.283-3.378-2.15-3.535-4.74-.157-2.592-.472-7.238-1.293-13.62S2.63 25.585 2.44 22.267c-.19-3.318-.852-4.045.095-5.5.947-1.453 5.492-2.4 6.66-2.56 0 0 2.052-.19 3.346-.6 1.295-.41 6.977-1.832 15.436-2.337 8.46-.505 19.665-.536 23.768-.19 4.104.35 5.87 1.58 6.88 4.836 1.01 3.255-.157 9.038-.22 9.67-.063.632-1.99.348-6.376.442-4.387.095-8.05.727-9.974.885-1.925.158-3.125 1.39-3.85 3.57-.727 2.18-1.263 7.238-1.137 9.102.127 1.865 3.22 1.77 3.535 1.8.316.033.347 1.707.347 2.308 0 .6.662.98 1.104.853.442-.126.505-2.34.505-2.75 0-.41 1.167-.41 1.514-.347.347.062.063 2.97.063 3.538 0 .57.758.474 1.105.38.347-.096.473-3.477.473-4.11s1.168-.347 1.61-.315c.442.032-.158 2.433-.22 3.666-.064 1.23.662.852 1.23.852s.63-3.38.63-4.298c0-.916 1.17-.537 1.453-.474.284.063-.158 2.813-.19 3.92-.03 1.105-.22 1.263.696 1.168.915-.095 1.136-4.045 1.136-4.71 0-.663 1.64-.19 1.99.064.346.253-.16 3.634-.317 4.96-.158 1.328-.03 1.518.79 1.265.82-.253.41-.316.6-1.896.188-1.58.346-2.685.63-2.875.284-.19.947 3.065.947 3.318s0 .666-.317 1.045zm6.03-10.46c-.285 2.496-.76 3.92-1.137 6.13-.38 2.213-1.105 3.635-1.23 3.604-.127-.032-.317-1.074-.538-2.812-.22-1.738-2.05-4.867-4.735-5.435-2.683-.57-5.27-.695-7.102-.442-1.83.253-5.27.695-5.27.695-.043.006-.086.012-.128.02-1.094.165-2.174.476-2.113-.59.062-1.105.283-4.834.788-5.94.505-1.106 1.515-1.8 2.84-2.022s4.262-.41 8.713-.758 7.198-.822 8.334 1.138 1.862 3.916 1.578 6.412zM7.56 18.878c.474-.426 2.44-.64 4.168-1.09s.473-1.682-.616-1.563-3.717.57-5.02 1.232c-1.3.664-.52 4.67-.354 6.47.166 1.8.474 3.375.923 3.342 1.28-.096.924-3.2.782-5.192-.14-1.99-.355-2.773.12-3.2zm7.695 32.755c-1.113-.213-2.817-.095-3.598-.095s-1.704.12-1.704-.664.237-4.29-1.018-4.03c-.395.084-.877-.046-.735 1.258.142 1.304-.402 4.622.52 4.953.924.332 2.487.024 4.24.07 1.75.05 3.407-1.278 2.295-1.492zM45.58 30.92c-1.677.282-3.22 1.28-3.03 2.914.19 1.635 1.326 2.323 4.143 2.252 2.817-.07 3.93-2.015 3.362-3.342-.57-1.328-2.652-2.133-4.475-1.825zm.355 3.506c-1.397-.024-1.49-1.21-1.09-1.588s.924-.166 1.492-.07c.71.118 1.042-.072 1.704.378.665.45-.708 1.304-2.105 1.28zm12.43-4.62c-.467.086-.853.023-.735 1.87s.19 2.703.024 3.32c-.166.615.284.852.758.686.473-.166 1.042-1.8 1.113-3.555.07-1.753-.143-2.512-1.16-2.322zm-7.506-14.91c1.822.048 4.094.167 4.094 1.376s-.024 3.294-.118 4.077c-.095.78-.142 1.23.71 1.23s.947-.97 1.136-2.44c.19-1.47.734-3.91-.45-4.81-1.184-.902-2.7-1.044-2.7-1.044-1.112-.07-3.195-.474-3.645.07-.448.545-.85 1.493.972 1.54zm-.727 35.623c-.726-.064-2.714 1.58-2.714 1.58-1.043-.033-2.526-1.265-2.62-.507-.096.758 1.072.885 2.966 1.043 1.894.158 3.157-.032 3.283-.853.125-.82-.19-1.2-.917-1.264z"></path></g></symbol></defs>
                <use xlink:href="#svg-theme-icon-wallet"></use>
              </svg>